# xmcd
#
# Track frame offsets:
#	150
#	13959
#	24286
#	36139
#	47514
#	61797
#	77388
#	87138
#	98841
#	108050
#	118618
#	128926
#	139264
#	156251
#	167580
#	177711
#	191777
#	211364
#
# Disc length: 2995 seconds
#
# Revision: 1
# Processed by: cddbd v1.4PL0 Copyright (c) Steve Scherf et al.
# Submitted via: audiograbber 1.81.03
#
DISCID=e90bb112
DTITLE=Various Artist - Country Vol 5
DYEAR=1900
DGENRE=
TTITLE0=Glen Campbell - Crying
TTITLE1=Roger Miller - King Of The Road
TTITLE2=Wynn Stewart - Wishfull Thinking
TTITLE3=Bobby Bare - That`s How I Get To Memphis
TTITLE4=Darcy Tetau - Heartbreak Road
TTITLE5=Cash McCall - Across The Wide Missouri
TTITLE6=Glen Campbell - Try A Little Kindness
TTITLE7=T Texas Tyler - Remember Me
TTITLE8=Johnny Cash - Down The Street To 301
TTITLE9=Gene Autry - The Last Mile Home
TTITLE10=Roy Orbison - Domino
TTITLE11=Conway Twitty - Born To Sing The Blues
TTITLE12=Glen Campbell - Southern Nights
TTITLE13=Merle Kilgore - 42 In Chicago
TTITLE14=Johnny Cash - Train Of Love
TTITLE15=Glen Campbell - In Your Loving Arms
TTITLE16=Toni Swain - Just Like Old Times
TTITLE17=Diana Trask - I`ve Got To Do A Little Better
EXTD=
EXTT0=
EXTT1=
EXTT2=
EXTT3=
EXTT4=
EXTT5=
EXTT6=
EXTT7=
EXTT8=
EXTT9=
EXTT10=
EXTT11=
EXTT12=
EXTT13=
EXTT14=
EXTT15=
EXTT16=
EXTT17=
PLAYORDER=
